<svg width="494" height="144" viewBox="0 0 494 144" fill="none" xmlns="http://www.w3.org/2000/svg">
<path d="M42.4908 56.9612H59.4699C59.4699 56.9612 59.5377 57.1213 59.6783 57.4416C59.8293 57.7504 59.9074 58.185 59.9074 58.7455C59.9074 59.8778 59.4491 60.7928 58.5324 61.4905C57.6158 62.1767 56.3866 62.7371 54.8449 63.1603C54.2199 67.0491 52.9491 70.7891 51.0324 74.3691C49.1158 77.9547 46.5377 80.8885 43.3033 83.176C40.0793 85.4635 36.1262 86.6072 31.4491 86.6072C27.1574 86.6072 23.2824 85.4978 19.8241 83.2675C16.3658 81.0429 13.6054 77.7775 11.5533 73.477C9.49598 69.1765 8.46994 63.9266 8.46994 57.7161C8.46994 51.557 9.26681 45.9355 10.8658 40.8572C12.4595 35.779 14.6783 31.3755 17.5116 27.6355C20.3449 23.9011 23.6418 21.036 27.4074 19.0345C31.1835 17.0215 35.272 16.015 39.6783 16.015C43.272 16.015 46.3554 16.7412 48.9283 18.1881C51.496 19.6235 53.4699 21.5507 54.8449 23.9755C56.2199 26.3888 56.9074 29.0651 56.9074 32.0046C56.9074 36.1564 55.9074 39.4733 53.9074 41.9552C51.9074 44.4257 49.3918 45.661 46.3658 45.661C44.9908 45.661 43.897 45.3979 43.0949 44.8603C42.3033 44.3285 41.7304 43.7966 41.3866 43.2591C41.0377 42.7272 40.8658 42.4585 40.8658 42.4585C40.8658 42.4585 41.1887 42.264 41.8449 41.8637C42.5116 41.452 43.2512 40.76 44.0741 39.7821C44.9074 38.8099 45.647 37.4717 46.3033 35.779C46.9699 34.0862 47.3033 31.9531 47.3033 29.374C47.3033 23.9183 44.6991 21.1847 39.4908 21.1847C37.4335 21.1847 35.2876 22.0196 33.0533 23.6781C30.8293 25.3422 28.7616 27.7441 26.8449 30.8837C24.9387 34.029 23.3866 37.8263 22.1783 42.2755C20.9804 46.7304 20.3866 51.78 20.3866 57.4187C20.3866 64.327 21.6001 69.5596 24.0324 73.111C26.4595 76.6509 29.9335 78.418 34.4491 78.418C38.1001 78.418 41.2824 77.1827 43.9908 74.7122C46.7095 72.2303 48.6158 68.8791 49.6991 64.6701C48.3241 65.0532 47.0012 65.3449 45.7408 65.5393C44.4908 65.7223 43.121 65.8138 41.6366 65.8138C39.8137 65.8138 38.3866 65.2648 37.3449 64.1668C36.3137 63.0688 35.8033 61.6048 35.8033 59.7748C35.8033 58.7683 35.9126 57.9849 36.1366 57.4187C36.371 56.8583 36.4908 56.5723 36.4908 56.5723C36.4908 56.5723 37.1001 56.641 38.3241 56.7782C39.5585 56.904 40.9491 56.9612 42.4908 56.9612Z" fill="#CFA548" fill-opacity="0.302"/>
<path d="M86.2869 39.5304C91.3286 39.5304 95.214 41.1889 97.9536 44.4943C100.704 47.7883 102.079 52.1288 102.079 57.5102C102.079 58.5167 102.027 59.5232 101.933 60.5297C101.849 61.5362 101.75 62.5141 101.641 63.4577C103.808 63.0803 105.662 62.2911 107.204 61.1016C108.756 59.9121 109.943 58.7855 110.766 57.7161C111.599 56.6524 112.016 56.1148 112.016 56.1148C113.209 56.1148 113.724 56.904 113.558 58.4709C113.391 59.5403 112.714 60.7527 111.537 62.1081C110.37 63.452 108.855 64.6586 106.995 65.7223C105.131 66.7746 103.063 67.4608 100.787 67.7811C99.3546 73.3626 96.7088 77.9033 92.8494 81.3917C88.9849 84.8687 84.1463 86.6072 78.3286 86.6072C73.813 86.6072 70.0578 85.0746 67.0578 82.0093C64.0578 78.9326 62.5578 74.472 62.5578 68.6274C62.5578 62.9258 63.5109 57.8933 65.4119 53.5299C67.3286 49.1723 70.0682 45.7467 73.6411 43.2591C77.2244 40.7771 81.438 39.5304 86.2869 39.5304ZM86.6411 57.8076C86.6411 56.1777 87.0057 54.7823 87.7453 53.6214C88.4953 52.4663 89.5838 51.7228 91.0161 51.4026C90.5578 46.5702 88.6932 44.1512 85.4328 44.1512C83.3182 44.1512 81.2349 45.5351 79.1828 48.2916C77.1255 51.0537 75.4953 55.949 74.2869 62.9773C74.063 64.1668 73.8755 65.7852 73.7244 67.8268C73.5838 69.8741 73.5161 71.4868 73.5161 72.6763C73.5161 75.6215 74.0161 77.8918 75.0161 79.4931C76.0161 81.0943 77.4015 81.8949 79.1828 81.8949C81.5265 81.8949 83.6255 80.5339 85.4744 77.8003C87.3338 75.0725 88.8078 70.8864 89.8911 65.2419C87.7244 63.4291 86.6411 60.9529 86.6411 57.8076Z" fill="#CFA548" fill-opacity="0.302"/>
<path d="M113.211 65.9053L121.002 17.4103C121.461 14.4709 121.586 12.3893 121.377 11.1654C121.18 9.94736 121.086 9.33545 121.086 9.33545C121.086 9.33545 121.424 9.1982 122.107 8.9237C122.799 8.63776 123.945 8.48907 125.544 8.48907C128.862 8.48907 130.877 9.21536 131.586 10.6622C132.305 12.0976 132.409 14.4766 131.898 17.7992L123.502 70.1372C123.096 72.8994 123.221 74.9753 123.877 76.3592C124.528 77.7317 125.627 78.4179 127.169 78.4179C128.888 78.4179 130.633 77.686 132.398 76.2219C134.174 74.7465 135.607 72.7449 136.69 70.2287C137.258 70.2287 137.7 70.4231 138.023 70.8006C138.341 71.1666 138.44 71.7956 138.315 72.6763C138.091 73.9287 137.534 75.3413 136.648 76.9082C135.758 78.4809 134.596 80.0078 133.169 81.4832C131.752 82.9472 130.127 84.171 128.294 85.1432C126.461 86.1211 124.513 86.6072 122.461 86.6072C119.487 86.6072 117.07 85.595 115.211 83.5648C113.367 81.5232 112.44 78.6181 112.44 74.8494C112.44 73.9059 112.497 72.6477 112.607 71.0751C112.721 69.5081 112.919 67.7811 113.211 65.9053Z" fill="#CFA548" fill-opacity="0.302"/>
<path d="M174.333 86.6072C171.526 86.6072 169.193 85.6865 167.333 83.8393C165.484 81.9807 164.469 79.3272 164.292 75.8788C160.583 83.033 156.177 86.6072 151.083 86.6072C147.594 86.6072 144.625 85.2919 142.167 82.6498C139.724 80.0135 138.5 75.936 138.5 70.4117C138.5 65.1504 139.135 60.5926 140.396 56.7324C141.646 52.8609 143.297 49.6584 145.354 47.125C147.406 44.5801 149.677 42.6815 152.167 41.4291C154.651 40.1652 157.151 39.5304 159.667 39.5304C161.667 39.5304 163.406 39.9136 164.896 40.6742C166.38 41.4234 167.609 42.4299 168.583 43.6937L172.688 17.4103C173.146 14.4709 173.276 12.3893 173.083 11.1654C172.885 9.94736 172.792 9.33545 172.792 9.33545C172.792 9.33545 173.13 9.1982 173.813 8.9237C174.49 8.63776 175.635 8.48907 177.25 8.48907C180.552 8.48907 182.563 9.21536 183.271 10.6622C183.99 12.0976 184.094 14.4766 183.583 17.7992L175.354 70.1372C174.948 72.9623 175.073 75.0496 175.729 76.4049C176.396 77.7489 177.5 78.4179 179.042 78.4179C180.526 78.4179 182.125 77.686 183.833 76.2219C185.552 74.7465 186.958 72.7449 188.042 70.2287C188.609 70.2287 189.047 70.4231 189.354 70.8006C189.672 71.1666 189.776 71.7956 189.667 72.6763C189.443 73.9287 188.917 75.3413 188.083 76.9082C187.25 78.4809 186.146 80.0078 184.771 81.4832C183.406 82.9472 181.839 84.171 180.063 85.1432C178.297 86.1211 176.385 86.6072 174.333 86.6072ZM154.521 78.4179C156.063 78.4179 157.484 77.6516 158.792 76.1076C160.109 74.5692 161.281 72.5963 162.313 70.1829C163.354 67.7754 164.255 65.2076 165.021 62.4741C165.797 59.7291 166.385 57.2014 166.792 54.8796L167.563 50.4647C167.156 49.5211 166.526 48.5318 165.667 47.4909C164.802 46.4559 163.547 45.9354 161.896 45.9354C159.948 45.9354 158.021 46.9419 156.104 48.9549C154.188 50.9679 152.594 53.8159 151.333 57.4873C150.083 61.1473 149.458 65.5164 149.458 70.5947C149.458 73.2368 149.901 75.204 150.792 76.4965C151.677 77.7775 152.922 78.4179 154.521 78.4179Z" fill="#CFA548" fill-opacity="0.302"/>
<path d="M209.217 86.6072C205.493 86.6072 202.16 85.7951 199.217 84.1596C196.269 82.5297 193.973 80.1965 192.321 77.1598C190.67 74.1117 189.842 70.4803 189.842 66.2713C189.842 62.1424 190.504 58.4138 191.821 55.0854C193.124 51.7457 194.874 48.9321 197.071 46.6446C199.28 44.3571 201.738 42.6071 204.446 41.3833C207.165 40.1481 209.952 39.5304 212.801 39.5304C215.717 39.5304 218.071 40.0223 219.863 40.9944C221.665 41.9723 222.988 43.2019 223.821 44.6773C224.655 46.1413 225.071 47.6911 225.071 49.3209C225.071 53.5928 222.936 57.1613 218.676 60.0264C214.426 62.8801 208.53 65.0933 200.988 66.6602C201.264 70.1715 202.457 73.1338 204.571 75.5586C206.696 77.9719 209.582 79.1728 213.238 79.1728C216.321 79.1728 218.957 78.7039 221.155 77.7546C223.363 76.811 225.196 75.6501 226.655 74.2776C228.113 72.8936 229.207 71.544 229.946 70.2287C231.207 70.2287 231.665 71.0465 231.321 72.6763C231.155 73.6828 230.509 74.9753 229.384 76.5422C228.269 78.1148 226.769 79.6703 224.884 81.2087C223.009 82.7356 220.738 84.0166 218.071 85.0517C215.415 86.0925 212.467 86.6072 209.217 86.6072ZM212.884 44.2427C211.285 44.2427 209.624 44.9232 207.905 46.2786C206.196 47.6225 204.707 49.6298 203.446 52.2947C202.196 54.9653 201.405 58.2765 201.071 62.2224C206.321 60.8499 210.103 58.8312 212.426 56.1606C214.743 53.4956 215.905 50.6191 215.905 47.5367C215.905 46.5302 215.624 45.7296 215.071 45.1348C214.53 44.5401 213.801 44.2427 212.884 44.2427Z" fill="#CFA548" fill-opacity="0.302"/>
<path d="M259.951 64.1211L261.576 53.7587C261.92 51.5055 261.909 49.9557 261.534 49.1151C261.159 48.263 260.482 47.8341 259.513 47.8341C258.149 47.8341 256.68 48.6347 255.097 50.2359C253.524 51.8258 251.956 54.0218 250.388 56.8239C248.815 59.6147 247.414 62.8058 246.18 66.3857C244.956 69.9542 244.003 73.7171 243.326 77.6631C242.868 80.6082 242.732 82.6956 242.93 83.9308C243.138 85.1546 243.243 85.7608 243.243 85.7608C243.243 85.7608 242.894 85.9095 242.201 86.1954C241.519 86.4699 240.378 86.6072 238.784 86.6072C235.461 86.6072 233.451 85.8752 232.743 84.4112C232.024 82.9358 231.92 80.5625 232.43 77.2971L236.972 48.4746C237.43 45.5351 237.555 43.4535 237.347 42.2297C237.149 41.0116 237.055 40.3997 237.055 40.3997C237.055 40.3997 237.394 40.2567 238.076 39.9651C238.769 39.6791 239.914 39.5304 241.513 39.5304C244.831 39.5304 246.847 40.2567 247.555 41.7036C248.274 43.1561 248.378 45.5408 247.868 48.8634L247.18 53.1868C248.315 51.1166 249.753 49.035 251.493 46.9419C253.243 44.8374 255.185 43.0761 257.326 41.6578C259.477 40.2396 261.69 39.5304 263.972 39.5304C266.664 39.5304 268.81 40.4168 270.409 42.1839C272.003 43.9396 272.805 46.29 272.805 49.2294C272.805 50.2359 272.732 51.4026 272.597 52.7293C272.456 54.0446 272.269 55.4228 272.034 56.8697L269.972 70.1372C269.581 72.459 269.628 74.4148 270.118 76.0161C270.602 77.6173 271.727 78.4179 273.493 78.4179C275.326 78.4179 277.013 77.6631 278.555 76.1533C280.097 74.6436 281.409 72.6706 282.493 70.2287C283.06 70.2287 283.503 70.4231 283.826 70.8006C284.144 71.1666 284.243 71.7956 284.118 72.6763C283.951 73.8658 283.451 75.2498 282.618 76.8167C281.795 78.3894 280.701 79.9277 279.326 81.4374C277.951 82.9358 276.388 84.171 274.638 85.1432C272.899 86.1211 271.034 86.6072 269.034 86.6072C265.836 86.6072 263.31 85.5264 261.451 83.3589C259.586 81.1973 258.659 78.3608 258.659 74.8494C258.659 73.5856 258.815 71.87 259.138 69.7026C259.456 67.5409 259.727 65.6766 259.951 64.1211Z" fill="#CFA548" fill-opacity="0.302"/>
<path d="M38.7021 52.8012H55.6812C55.6812 52.8012 55.749 52.9613 55.8896 53.2816C56.0406 53.5904 56.1187 54.025 56.1187 54.5855C56.1187 55.7178 55.6604 56.6328 54.7437 57.3305C53.8271 58.0167 52.5979 58.5772 51.0562 59.0003C50.4312 62.8891 49.1604 66.6292 47.2437 70.2091C45.3271 73.7948 42.749 76.7285 39.5146 79.016C36.2906 81.3035 32.3375 82.4472 27.6604 82.4472C23.3687 82.4472 19.4937 81.3378 16.0354 79.1075C12.5771 76.8829 9.81666 73.6175 7.76458 69.317C5.70729 65.0165 4.68124 59.7667 4.68124 53.5561C4.68124 47.397 5.47812 41.7755 7.07708 36.6972C8.67083 31.619 10.8896 27.2155 13.7229 23.4755C16.5562 19.7411 19.8531 16.876 23.6187 14.8745C27.3948 12.8615 31.4833 11.855 35.8896 11.855C39.4833 11.855 42.5667 12.5812 45.1396 14.0281C47.7073 15.4635 49.6812 17.3907 51.0562 19.8155C52.4312 22.2288 53.1187 24.9052 53.1187 27.8446C53.1187 31.9964 52.1187 35.3133 50.1187 37.7952C48.1187 40.2657 45.6031 41.501 42.5771 41.501C41.2021 41.501 40.1083 41.2379 39.3062 40.7003C38.5146 40.1685 37.9417 39.6367 37.5979 39.0991C37.249 38.5672 37.0771 38.2985 37.0771 38.2985C37.0771 38.2985 37.4 38.104 38.0562 37.7037C38.7229 37.292 39.4625 36.6 40.2854 35.6221C41.1187 34.6499 41.8583 33.3117 42.5146 31.619C43.1812 29.9262 43.5146 27.7931 43.5146 25.214C43.5146 19.7583 40.9104 17.0247 35.7021 17.0247C33.6448 17.0247 31.499 17.8597 29.2646 19.5181C27.0406 21.1822 24.9729 23.5841 23.0562 26.7237C21.15 29.869 19.5979 33.6663 18.3896 38.1155C17.1917 42.5704 16.5979 47.62 16.5979 53.2587C16.5979 60.167 17.8115 65.3996 20.2437 68.951C22.6708 72.4909 26.1448 74.258 30.6604 74.258C34.3115 74.258 37.4937 73.0227 40.2021 70.5522C42.9208 68.0703 44.8271 64.7191 45.9104 60.5101C44.5354 60.8932 43.2125 61.1849 41.9521 61.3793C40.7021 61.5623 39.3323 61.6538 37.8479 61.6538C36.025 61.6538 34.5979 61.1048 33.5562 60.0068C32.525 58.9088 32.0146 57.4448 32.0146 55.6148C32.0146 54.6083 32.124 53.8249 32.3479 53.2587C32.5823 52.6983 32.7021 52.4123 32.7021 52.4123C32.7021 52.4123 33.3115 52.481 34.5354 52.6182C35.7698 52.744 37.1604 52.8012 38.7021 52.8012Z" fill="#CFA548" fill-opacity="0.502"/>
<path d="M82.4982 35.3705C87.5399 35.3705 91.4253 37.0289 94.1649 40.3343C96.9149 43.6283 98.2899 47.9689 98.2899 53.3502C98.2899 54.3567 98.2378 55.3632 98.1441 56.3697C98.0607 57.3762 97.9618 58.3541 97.8524 59.2977C100.019 58.9203 101.873 58.1311 103.415 56.9416C104.967 55.7521 106.154 54.6255 106.977 53.5561C107.811 52.4924 108.227 51.9548 108.227 51.9548C109.42 51.9548 109.936 52.744 109.769 54.311C109.602 55.3804 108.925 56.5927 107.748 57.9481C106.582 59.292 105.066 60.4986 103.207 61.5623C101.342 62.6146 99.2743 63.3008 96.9982 63.6211C95.5659 69.2026 92.9201 73.7433 89.0607 77.2317C85.1962 80.7087 80.3576 82.4472 74.5399 82.4472C70.0243 82.4472 66.2691 80.9146 63.2691 77.8493C60.2691 74.7726 58.7691 70.312 58.7691 64.4675C58.7691 58.7659 59.7222 53.7334 61.6232 49.37C63.5399 45.0123 66.2795 41.5867 69.8524 39.0991C73.4357 36.6171 77.6493 35.3705 82.4982 35.3705ZM82.8524 53.6476C82.8524 52.0177 83.217 50.6224 83.9566 49.4615C84.7066 48.3063 85.7951 47.5628 87.2274 47.2426C86.7691 42.4102 84.9045 39.9912 81.6441 39.9912C79.5295 39.9912 77.4462 41.3751 75.3941 44.1316C73.3368 46.8937 71.7066 51.789 70.4982 58.8173C70.2743 60.0068 70.0868 61.6252 69.9357 63.6668C69.7951 65.7141 69.7274 67.3268 69.7274 68.5163C69.7274 71.4615 70.2274 73.7318 71.2274 75.3331C72.2274 76.9343 73.6128 77.735 75.3941 77.735C77.7378 77.735 79.8368 76.3739 81.6857 73.6403C83.5451 70.9125 85.0191 66.7264 86.1024 61.082C83.9357 59.2691 82.8524 56.7929 82.8524 53.6476Z" fill="#CFA548" fill-opacity="0.502"/>
<path d="M109.422 61.7453L117.214 13.2503C117.672 10.3109 117.797 8.22927 117.589 7.00546C117.391 5.78737 117.297 5.17546 117.297 5.17546C117.297 5.17546 117.636 5.03821 118.318 4.76371C119.011 4.47777 120.156 4.32909 121.755 4.32909C125.073 4.32909 127.089 5.05537 127.797 6.50221C128.516 7.93762 128.62 10.3166 128.11 13.6392L119.714 65.9772C119.307 68.7394 119.432 70.8153 120.089 72.1992C120.74 73.5717 121.839 74.258 123.38 74.258C125.099 74.258 126.844 73.526 128.61 72.062C130.386 70.5865 131.818 68.585 132.901 66.0687C133.469 66.0687 133.912 66.2631 134.235 66.6406C134.552 67.0066 134.651 67.6356 134.526 68.5163C134.302 69.7687 133.745 71.1813 132.86 72.7482C131.969 74.3209 130.807 75.8478 129.38 77.3232C127.964 78.7872 126.339 80.011 124.505 80.9832C122.672 81.9611 120.724 82.4472 118.672 82.4472C115.698 82.4472 113.281 81.435 111.422 79.4048C109.578 77.3632 108.651 74.4581 108.651 70.6895C108.651 69.7459 108.709 68.4877 108.818 66.9151C108.932 65.3481 109.13 63.6211 109.422 61.7453Z" fill="#CFA548" fill-opacity="0.502"/>
<path d="M170.545 82.4472C167.737 82.4472 165.404 81.5265 163.545 79.6793C161.696 77.8207 160.68 75.1672 160.503 71.7188C156.795 78.873 152.388 82.4472 147.295 82.4472C143.805 82.4472 140.836 81.1319 138.378 78.4898C135.935 75.8535 134.711 71.776 134.711 66.2517C134.711 60.9905 135.347 56.4326 136.607 52.5725C137.857 48.7009 139.508 45.4984 141.566 42.965C143.618 40.4201 145.888 38.5215 148.378 37.2691C150.862 36.0052 153.362 35.3705 155.878 35.3705C157.878 35.3705 159.618 35.7536 161.107 36.5142C162.592 37.2634 163.821 38.2699 164.795 39.5337L168.899 13.2503C169.357 10.3109 169.487 8.22927 169.295 7.00546C169.097 5.78737 169.003 5.17546 169.003 5.17546C169.003 5.17546 169.342 5.03821 170.024 4.76371C170.701 4.47777 171.847 4.32909 173.461 4.32909C176.763 4.32909 178.774 5.05537 179.482 6.50221C180.201 7.93762 180.305 10.3166 179.795 13.6392L171.566 65.9772C171.159 68.8023 171.284 70.8896 171.941 72.245C172.607 73.5889 173.711 74.258 175.253 74.258C176.737 74.258 178.336 73.526 180.045 72.062C181.763 70.5865 183.17 68.585 184.253 66.0687C184.821 66.0687 185.258 66.2631 185.566 66.6406C185.883 67.0066 185.987 67.6356 185.878 68.5163C185.654 69.7687 185.128 71.1813 184.295 72.7482C183.461 74.3209 182.357 75.8478 180.982 77.3232C179.618 78.7872 178.05 80.011 176.274 80.9832C174.508 81.9611 172.597 82.4472 170.545 82.4472ZM150.732 74.258C152.274 74.258 153.696 73.4916 155.003 71.9476C156.321 70.4092 157.493 68.4363 158.524 66.023C159.566 63.6154 160.467 61.0476 161.232 58.3141C162.008 55.5691 162.597 53.0414 163.003 50.7196L163.774 46.3047C163.368 45.3611 162.737 44.3718 161.878 43.331C161.013 42.2959 159.758 41.7755 158.107 41.7755C156.159 41.7755 154.232 42.782 152.316 44.795C150.399 46.808 148.805 49.6559 147.545 53.3273C146.295 56.9873 145.67 61.3565 145.67 66.4347C145.67 69.0768 146.112 71.044 147.003 72.3365C147.888 73.6175 149.133 74.258 150.732 74.258Z" fill="#CFA548" fill-opacity="0.502"/>
<path d="M205.429 82.4472C201.705 82.4472 198.371 81.6351 195.429 79.9996C192.481 78.3697 190.184 76.0365 188.533 72.9998C186.882 69.9517 186.054 66.3203 186.054 62.1113C186.054 57.9824 186.715 54.2538 188.033 50.9255C189.335 47.5857 191.085 44.7721 193.283 42.4846C195.491 40.1971 197.949 38.4471 200.658 37.2233C203.377 35.9881 206.163 35.3705 209.012 35.3705C211.929 35.3705 214.283 35.8623 216.074 36.8345C217.877 37.8124 219.199 39.0419 220.033 40.5173C220.866 41.9813 221.283 43.5311 221.283 45.161C221.283 49.4329 219.147 53.0014 214.887 55.8665C210.637 58.7201 204.741 60.9333 197.199 62.5002C197.475 66.0115 198.668 68.9738 200.783 71.3986C202.908 73.8119 205.793 75.0128 209.449 75.0128C212.533 75.0128 215.168 74.5439 217.366 73.5946C219.574 72.651 221.408 71.4901 222.866 70.1176C224.324 68.7336 225.418 67.384 226.158 66.0687C227.418 66.0687 227.877 66.8865 227.533 68.5163C227.366 69.5228 226.72 70.8153 225.595 72.3822C224.481 73.9549 222.981 75.5104 221.095 77.0487C219.22 78.5756 216.949 79.8566 214.283 80.8917C211.627 81.9325 208.679 82.4472 205.429 82.4472ZM209.095 40.0827C207.496 40.0827 205.835 40.7632 204.116 42.1186C202.408 43.4625 200.918 45.4698 199.658 48.1347C198.408 50.8054 197.616 54.1165 197.283 58.0625C202.533 56.69 206.314 54.6712 208.637 52.0006C210.955 49.3356 212.116 46.4591 212.116 43.3767C212.116 42.3702 211.835 41.5696 211.283 40.9748C210.741 40.3801 210.012 40.0827 209.095 40.0827Z" fill="#CFA548" fill-opacity="0.502"/>
<path d="M256.162 59.9611L257.787 49.5987C258.131 47.3455 258.12 45.7957 257.745 44.9551C257.37 44.103 256.693 43.6741 255.725 43.6741C254.36 43.6741 252.891 44.4747 251.308 46.076C249.735 47.6658 248.167 49.8618 246.6 52.664C245.027 55.4547 243.626 58.6458 242.391 62.2257C241.167 65.7942 240.214 69.5571 239.537 73.5031C239.079 76.4482 238.943 78.5356 239.141 79.7708C239.35 80.9946 239.454 81.6008 239.454 81.6008C239.454 81.6008 239.105 81.7495 238.412 82.0355C237.73 82.31 236.589 82.4472 234.995 82.4472C231.673 82.4472 229.662 81.7152 228.954 80.2512C228.235 78.7758 228.131 76.4025 228.641 73.1371L233.183 44.3146C233.641 41.3751 233.766 39.2935 233.558 38.0697C233.36 36.8516 233.266 36.2397 233.266 36.2397C233.266 36.2397 233.605 36.0967 234.287 35.8051C234.98 35.5191 236.126 35.3705 237.725 35.3705C241.042 35.3705 243.058 36.0967 243.766 37.5436C244.485 38.9961 244.589 41.3809 244.079 44.7035L243.391 49.0268C244.527 46.9566 245.964 44.875 247.704 42.782C249.454 40.6775 251.397 38.9161 253.537 37.4978C255.688 36.0796 257.902 35.3705 260.183 35.3705C262.876 35.3705 265.022 36.2569 266.62 38.024C268.214 39.7796 269.016 42.13 269.016 45.0695C269.016 46.076 268.943 47.2426 268.808 48.5693C268.667 49.8846 268.48 51.2629 268.245 52.7097L266.183 65.9772C265.792 68.299 265.839 70.2548 266.329 71.8561C266.813 73.4573 267.938 74.258 269.704 74.258C271.537 74.258 273.225 73.5031 274.766 71.9933C276.308 70.4836 277.62 68.5106 278.704 66.0687C279.272 66.0687 279.714 66.2631 280.037 66.6406C280.355 67.0066 280.454 67.6356 280.329 68.5163C280.162 69.7058 279.662 71.0898 278.829 72.6567C278.006 74.2294 276.912 75.7677 275.537 77.2775C274.162 78.7758 272.6 80.011 270.85 80.9832C269.11 81.9611 267.245 82.4472 265.245 82.4472C262.048 82.4472 259.522 81.3664 257.662 79.199C255.798 77.0373 254.87 74.2008 254.87 70.6895C254.87 69.4256 255.027 67.71 255.35 65.5426C255.667 63.3809 255.938 61.5166 256.162 59.9611Z" fill="#CFA548" fill-opacity="0.502"/>
<path d="M34.9134 48.6412H51.8925C51.8925 48.6412 51.9603 48.8014 52.1009 49.1216C52.2519 49.4304 52.33 49.865 52.33 50.4255C52.33 51.5578 51.8717 52.4728 50.955 53.1705C50.0384 53.8567 48.8092 54.4172 47.2675 54.8404C46.6425 58.7291 45.3717 62.4692 43.455 66.0491C41.5384 69.6348 38.9603 72.5685 35.7259 74.856C32.5019 77.1435 28.5488 78.2872 23.8717 78.2872C19.58 78.2872 15.705 77.1778 12.2467 74.9475C8.78838 72.7229 6.02796 69.4575 3.97588 65.157C1.91859 60.8565 0.892548 55.6067 0.892548 49.3961C0.892548 43.237 1.68942 37.6155 3.28838 32.5372C4.88213 27.459 7.10088 23.0555 9.93421 19.3155C12.7675 15.5811 16.0644 12.716 19.83 10.7145C23.6061 8.70148 27.6946 7.69498 32.1009 7.69498C35.6946 7.69498 38.778 8.42126 41.3509 9.8681C43.9186 11.3035 45.8925 13.2307 47.2675 15.6555C48.6425 18.0688 49.33 20.7452 49.33 23.6846C49.33 27.8364 48.33 31.1533 46.33 33.6352C44.33 36.1057 41.8144 37.341 38.7884 37.341C37.4134 37.341 36.3196 37.0779 35.5175 36.5404C34.7259 36.0085 34.153 35.4767 33.8092 34.9391C33.4603 34.4073 33.2884 34.1385 33.2884 34.1385C33.2884 34.1385 33.6113 33.944 34.2675 33.5437C34.9342 33.132 35.6738 32.44 36.4967 31.4621C37.33 30.4899 38.0696 29.1517 38.7259 27.459C39.3925 25.7662 39.7259 23.6331 39.7259 21.054C39.7259 15.5983 37.1217 12.8647 31.9134 12.8647C29.8561 12.8647 27.7103 13.6997 25.4759 15.3581C23.2519 17.0223 21.1842 19.4241 19.2675 22.5637C17.3613 25.709 15.8092 29.5063 14.6009 33.9555C13.403 38.4104 12.8092 43.46 12.8092 49.0987C12.8092 56.007 14.0228 61.2396 16.455 64.791C18.8821 68.3309 22.3561 70.098 26.8717 70.098C30.5228 70.098 33.705 68.8627 36.4134 66.3922C39.1321 63.9103 41.0384 60.5591 42.1217 56.3501C40.7467 56.7333 39.4238 57.0249 38.1634 57.2194C36.9134 57.4024 35.5436 57.4939 34.0592 57.4939C32.2363 57.4939 30.8092 56.9449 29.7675 55.8469C28.7363 54.7489 28.2259 53.2849 28.2259 51.4549C28.2259 50.4484 28.3353 49.6649 28.5592 49.0987C28.7936 48.5383 28.9134 48.2524 28.9134 48.2524C28.9134 48.2524 29.5228 48.321 30.7467 48.4582C31.9811 48.584 33.3717 48.6412 34.9134 48.6412Z" fill="white"/>
<path d="M78.7095 31.2105C83.7512 31.2105 87.6366 32.8689 90.3762 36.1743C93.1262 39.4683 94.5012 43.8089 94.5012 49.1902C94.5012 50.1967 94.4491 51.2032 94.3554 52.2097C94.272 53.2162 94.1731 54.1941 94.0637 55.1377C96.2304 54.7603 98.0845 53.9711 99.6262 52.7816C101.178 51.5921 102.366 50.4655 103.189 49.3961C104.022 48.3324 104.439 47.7948 104.439 47.7948C105.631 47.7948 106.147 48.584 105.98 50.151C105.814 51.2204 105.137 52.4327 103.96 53.7881C102.793 55.132 101.277 56.3387 99.4179 57.4023C97.5533 58.4546 95.4856 59.1408 93.2095 59.4611C91.7773 65.0426 89.1314 69.5833 85.272 73.0717C81.4075 76.5487 76.5689 78.2872 70.7512 78.2872C66.2356 78.2872 62.4804 76.7546 59.4804 73.6893C56.4804 70.6127 54.9804 66.152 54.9804 60.3075C54.9804 54.6059 55.9335 49.5734 57.8345 45.21C59.7512 40.8523 62.4908 37.4267 66.0637 34.9391C69.647 32.4572 73.8606 31.2105 78.7095 31.2105ZM79.0637 49.4876C79.0637 47.8577 79.4283 46.4624 80.1679 45.3015C80.9179 44.1463 82.0064 43.4028 83.4387 43.0826C82.9804 38.2502 81.1158 35.8312 77.8554 35.8312C75.7408 35.8312 73.6575 37.2152 71.6054 39.9716C69.5481 42.7337 67.9179 47.629 66.7095 54.6573C66.4856 55.8468 66.2981 57.4652 66.147 59.5068C66.0064 61.5542 65.9387 63.1668 65.9387 64.3563C65.9387 67.3015 66.4387 69.5718 67.4387 71.1731C68.4387 72.7743 69.8241 73.575 71.6054 73.575C73.9491 73.575 76.0481 72.2139 77.897 69.4803C79.7564 66.7525 81.2304 62.5664 82.3137 56.922C80.147 55.1091 79.0637 52.6329 79.0637 49.4876Z" fill="white"/>
<path d="M105.633 57.5853L113.425 9.09035C113.883 6.15091 114.008 4.06929 113.8 2.84547C113.602 1.62738 113.508 1.01547 113.508 1.01547C113.508 1.01547 113.847 0.878223 114.529 0.603723C115.222 0.317786 116.368 0.169098 117.967 0.169098C121.284 0.169098 123.3 0.895379 124.008 2.34222C124.727 3.77763 124.831 6.15663 124.321 9.47922L115.925 61.8172C115.519 64.5794 115.644 66.6553 116.3 68.0392C116.951 69.4117 118.05 70.098 119.592 70.098C121.31 70.098 123.055 69.366 124.821 67.902C126.597 66.4265 128.029 64.425 129.113 61.9087C129.68 61.9087 130.123 62.1032 130.446 62.4806C130.764 62.8466 130.863 63.4757 130.738 64.3563C130.514 65.6088 129.956 67.0213 129.071 68.5882C128.18 70.1609 127.019 71.6878 125.592 73.1632C124.175 74.6272 122.55 75.851 120.717 76.8232C118.883 77.8011 116.935 78.2872 114.883 78.2872C111.909 78.2872 109.493 77.275 107.633 75.2449C105.79 73.2033 104.863 70.2981 104.863 66.5295C104.863 65.5859 104.92 64.3278 105.029 62.7551C105.144 61.1882 105.342 59.4611 105.633 57.5853Z" fill="white"/>
<path d="M166.756 78.2872C163.949 78.2872 161.615 77.3665 159.756 75.5193C157.907 73.6608 156.891 71.0073 156.714 67.5588C153.006 74.713 148.6 78.2872 143.506 78.2872C140.016 78.2872 137.048 76.9719 134.589 74.3298C132.147 71.6935 130.923 67.616 130.923 62.0917C130.923 56.8305 131.558 52.2726 132.818 48.4125C134.068 44.5409 135.72 41.3384 137.777 38.805C139.829 36.2601 142.1 34.3615 144.589 33.1091C147.074 31.8453 149.574 31.2105 152.089 31.2105C154.089 31.2105 155.829 31.5936 157.318 32.3542C158.803 33.1034 160.032 34.1099 161.006 35.3737L165.11 9.09035C165.568 6.15091 165.699 4.06929 165.506 2.84547C165.308 1.62738 165.214 1.01547 165.214 1.01547C165.214 1.01547 165.553 0.878223 166.235 0.603723C166.912 0.317786 168.058 0.169098 169.673 0.169098C172.975 0.169098 174.985 0.895379 175.693 2.34222C176.412 3.77763 176.516 6.15663 176.006 9.47922L167.777 61.8172C167.371 64.6423 167.496 66.7296 168.152 68.085C168.818 69.4289 169.923 70.098 171.464 70.098C172.949 70.098 174.548 69.366 176.256 67.902C177.975 66.4265 179.381 64.425 180.464 61.9087C181.032 61.9087 181.47 62.1032 181.777 62.4806C182.095 62.8466 182.199 63.4757 182.089 64.3563C181.865 65.6088 181.339 67.0213 180.506 68.5882C179.673 70.1609 178.568 71.6878 177.193 73.1632C175.829 74.6272 174.261 75.851 172.485 76.8232C170.72 77.8011 168.808 78.2872 166.756 78.2872ZM146.943 70.098C148.485 70.098 149.907 69.3317 151.214 67.7876C152.532 66.2493 153.704 64.2763 154.735 61.863C155.777 59.4554 156.678 56.8877 157.443 54.1541C158.22 51.4091 158.808 48.8814 159.214 46.5596L159.985 42.1447C159.579 41.2011 158.949 40.2118 158.089 39.171C157.225 38.1359 155.97 37.6155 154.318 37.6155C152.371 37.6155 150.443 38.622 148.527 40.635C146.61 42.648 145.016 45.4959 143.756 49.1673C142.506 52.8273 141.881 57.1965 141.881 62.2747C141.881 64.9168 142.324 66.884 143.214 68.1765C144.1 69.4575 145.345 70.098 146.943 70.098Z" fill="white"/>
<path d="M201.64 78.2872C197.916 78.2872 194.583 77.4752 191.64 75.8396C188.692 74.2097 186.395 71.8765 184.744 68.8398C183.093 65.7917 182.265 62.1603 182.265 57.9513C182.265 53.8224 182.926 50.0938 184.244 46.7655C185.546 43.4257 187.296 40.6121 189.494 38.3246C191.702 36.0371 194.161 34.2872 196.869 33.0633C199.588 31.8281 202.374 31.2105 205.223 31.2105C208.14 31.2105 210.494 31.7023 212.286 32.6745C214.088 33.6524 215.411 34.8819 216.244 36.3573C217.077 37.8213 217.494 39.3711 217.494 41.001C217.494 45.2729 215.359 48.8414 211.098 51.7065C206.848 54.5601 200.952 56.7733 193.411 58.3402C193.687 61.8515 194.879 64.8138 196.994 67.2386C199.119 69.6519 202.004 70.8528 205.661 70.8528C208.744 70.8528 211.379 70.3839 213.577 69.4346C215.786 68.491 217.619 67.3301 219.077 65.9576C220.536 64.5737 221.629 63.224 222.369 61.9087C223.629 61.9087 224.088 62.7265 223.744 64.3563C223.577 65.3628 222.932 66.6553 221.807 68.2222C220.692 69.7949 219.192 71.3504 217.307 72.8887C215.432 74.4156 213.161 75.6966 210.494 76.7317C207.838 77.7725 204.89 78.2872 201.64 78.2872ZM205.307 35.9227C203.708 35.9227 202.046 36.6032 200.327 37.9586C198.619 39.3025 197.129 41.3098 195.869 43.9747C194.619 46.6454 193.827 49.9565 193.494 53.9025C198.744 52.53 202.525 50.5112 204.848 47.8406C207.166 45.1757 208.327 42.2991 208.327 39.2167C208.327 38.2102 208.046 37.4096 207.494 36.8148C206.952 36.2201 206.223 35.9227 205.307 35.9227Z" fill="white"/>
<path d="M252.373 55.8011L253.998 45.4387C254.342 43.1855 254.332 41.6357 253.957 40.7951C253.582 39.943 252.905 39.5141 251.936 39.5141C250.571 39.5141 249.103 40.3147 247.519 41.916C245.946 43.5058 244.379 45.7018 242.811 48.504C241.238 51.2947 239.837 54.4858 238.603 58.0657C237.379 61.6342 236.426 65.3972 235.748 69.3431C235.29 72.2882 235.155 74.3756 235.353 75.6108C235.561 76.8347 235.665 77.4408 235.665 77.4408C235.665 77.4408 235.316 77.5895 234.623 77.8755C233.941 78.15 232.801 78.2872 231.207 78.2872C227.884 78.2872 225.873 77.5552 225.165 76.0912C224.446 74.6158 224.342 72.2425 224.853 68.9771L229.394 40.1546C229.853 37.2152 229.978 35.1335 229.769 33.9097C229.571 32.6916 229.478 32.0797 229.478 32.0797C229.478 32.0797 229.816 31.9367 230.498 31.6451C231.191 31.3592 232.337 31.2105 233.936 31.2105C237.254 31.2105 239.269 31.9367 239.978 33.3836C240.696 34.8362 240.801 37.2209 240.29 40.5435L239.603 44.8668C240.738 42.7967 242.176 40.715 243.915 38.622C245.665 36.5175 247.608 34.7561 249.748 33.3378C251.899 31.9196 254.113 31.2105 256.394 31.2105C259.087 31.2105 261.233 32.0969 262.832 33.864C264.426 35.6196 265.228 37.97 265.228 40.9095C265.228 41.916 265.155 43.0826 265.019 44.4093C264.879 45.7247 264.691 47.1029 264.457 48.5497L262.394 61.8172C262.004 64.139 262.051 66.0948 262.54 67.6961C263.024 69.2973 264.149 70.098 265.915 70.098C267.748 70.098 269.436 69.3431 270.978 67.8333C272.519 66.3236 273.832 64.3506 274.915 61.9087C275.483 61.9087 275.926 62.1032 276.248 62.4806C276.566 62.8466 276.665 63.4757 276.54 64.3563C276.373 65.5458 275.873 66.9298 275.04 68.4967C274.217 70.0694 273.123 71.6077 271.748 73.1175C270.373 74.6158 268.811 75.851 267.061 76.8232C265.321 77.8011 263.457 78.2872 261.457 78.2872C258.259 78.2872 255.733 77.2064 253.873 75.039C252.009 72.8773 251.082 70.0408 251.082 66.5295C251.082 65.2656 251.238 63.55 251.561 61.3826C251.879 59.2209 252.149 57.3566 252.373 55.8011Z" fill="white"/>
<path d="M331.023 61.8565L332.148 54.5136H314.648L311.148 76.7252C310.633 79.9906 310.487 82.301 310.711 83.6563C310.93 85.0002 311.044 85.6693 311.044 85.6693C311.044 85.6693 310.669 85.8295 309.919 86.1497C309.18 86.4585 307.93 86.6072 306.169 86.6072C303.029 86.6072 301.029 85.8066 300.169 84.2053C299.305 82.6041 299.159 79.9849 299.732 76.3363L307.794 25.8055C307.904 24.8619 308.003 24.0155 308.086 23.2663C308.18 22.5057 308.232 21.8138 308.232 21.1847H307.357C303.482 21.1847 300.57 22.2084 298.628 24.25C296.68 26.2973 295.711 28.6591 295.711 31.3412C295.711 32.668 296.008 33.7316 296.607 34.5208C297.201 35.2986 298.044 35.6875 299.128 35.6875C299.586 35.6875 299.94 35.6417 300.19 35.5502C300.451 35.4473 300.586 35.3901 300.586 35.3901C300.586 35.3901 300.596 35.4587 300.628 35.596C300.669 35.7218 300.69 35.9334 300.69 36.2365C300.69 37.3802 300.138 38.5468 299.044 39.7363C297.961 40.9258 296.336 41.5206 294.169 41.5206C291.362 41.5206 289.159 40.6628 287.565 38.9357C285.971 37.2144 285.169 34.9326 285.169 32.0961C285.169 27.4639 287.034 23.6266 290.773 20.59C294.523 17.5419 299.857 16.015 306.773 16.015H312.773C315.966 16.015 317.982 16.8156 318.815 18.4168C319.648 20.0181 319.773 22.6373 319.19 26.263L315.503 49.321H333.003L336.773 25.8055C337.284 22.5458 337.424 20.2583 337.19 18.943C336.966 17.6162 336.857 16.9528 336.857 16.9528C336.857 16.9528 337.221 16.8041 337.961 16.4953C338.711 16.1751 339.971 16.015 341.753 16.015C344.945 16.015 346.951 16.8156 347.773 18.4168C348.607 20.0181 348.737 22.6373 348.169 26.263L341.148 70.5947C340.742 73.294 340.924 75.2784 341.69 76.5422C342.466 77.7946 343.57 78.418 345.003 78.418C346.43 78.418 347.742 77.9147 348.94 76.9082C350.148 75.9017 351.19 74.758 352.065 73.477C352.951 72.196 353.596 71.1151 354.003 70.2287C355.263 70.2287 355.805 71.0465 355.628 72.6763C355.404 74.5521 354.549 76.5765 353.065 78.7382C351.576 80.9056 349.701 82.7585 347.44 84.2968C345.19 85.8409 342.742 86.6072 340.107 86.6072C337.076 86.6072 334.607 85.555 332.69 83.4505C330.784 81.346 329.836 78.5095 329.836 74.941C329.836 72.745 329.93 70.6405 330.128 68.6275C330.32 66.6145 330.617 64.3613 331.023 61.8565Z" fill="#CFA548" fill-opacity="0.302"/>
<path d="M379.529 39.5304C384.571 39.5304 388.456 41.1889 391.196 44.4943C393.946 47.7883 395.321 52.1288 395.321 57.5102C395.321 58.5167 395.268 59.5232 395.175 60.5297C395.091 61.5362 394.992 62.5141 394.883 63.4577C397.05 63.0803 398.904 62.2911 400.446 61.1016C401.998 59.9121 403.185 58.7855 404.008 57.7161C404.841 56.6524 405.258 56.1148 405.258 56.1148C406.451 56.1148 406.966 56.904 406.8 58.4709C406.633 59.5403 405.956 60.7527 404.779 62.1081C403.612 63.452 402.097 64.6586 400.237 65.7223C398.373 66.7746 396.305 67.4608 394.029 67.7811C392.597 73.3626 389.951 77.9033 386.091 81.3917C382.227 84.8687 377.388 86.6072 371.571 86.6072C367.055 86.6072 363.3 85.0746 360.3 82.0093C357.3 78.9326 355.8 74.472 355.8 68.6274C355.8 62.9258 356.753 57.8933 358.654 53.5299C360.571 49.1723 363.31 45.7467 366.883 43.2591C370.466 40.7771 374.68 39.5304 379.529 39.5304ZM379.883 57.8076C379.883 56.1777 380.248 54.7823 380.987 53.6214C381.737 52.4663 382.826 51.7228 384.258 51.4026C383.8 46.5702 381.935 44.1512 378.675 44.1512C376.56 44.1512 374.477 45.5351 372.425 48.2916C370.367 51.0537 368.737 55.949 367.529 62.9773C367.305 64.1668 367.117 65.7852 366.966 67.8268C366.826 69.8741 366.758 71.4868 366.758 72.6763C366.758 75.6215 367.258 77.8918 368.258 79.4931C369.258 81.0943 370.643 81.8949 372.425 81.8949C374.768 81.8949 376.867 80.5339 378.716 77.8003C380.576 75.0725 382.05 70.8864 383.133 65.2419C380.966 63.4291 379.883 60.9529 379.883 57.8076Z" fill="#CFA548" fill-opacity="0.302"/>
<path d="M430.89 74.8494C430.89 74.4091 430.89 73.923 430.89 73.3854C430.89 72.8536 430.916 72.276 430.974 71.6469C429.708 74.3462 428.416 76.668 427.099 78.6009C425.333 81.3002 423.463 83.3132 421.494 84.6399C419.52 85.9553 417.359 86.6072 415.015 86.6072C412.151 86.6072 409.88 85.6121 408.203 83.6106C406.526 81.5976 405.682 78.9612 405.682 75.6958C405.682 73.9287 405.755 72.1674 405.89 70.4117C406.031 68.6618 406.302 66.563 406.703 64.1211L409.182 48.4746C409.64 45.5351 409.77 43.4535 409.578 42.2297C409.38 41.0116 409.286 40.3997 409.286 40.3997C409.286 40.3997 409.625 40.2567 410.307 39.9651C410.984 39.6791 412.13 39.5304 413.744 39.5304C417.046 39.5304 419.057 40.2567 419.765 41.7036C420.484 43.1561 420.588 45.5408 420.078 48.8634L416.64 70.5947C416.25 73.2939 416.312 75.2784 416.828 76.5422C417.338 77.7946 418.224 78.4179 419.474 78.4179C420.442 78.4179 421.474 77.8404 422.557 76.6794C423.651 75.5243 424.744 73.9973 425.828 72.1044C427.078 70.0343 428.27 67.6152 429.411 64.8531C430.562 62.0966 431.599 59.2144 432.515 56.2063C433.432 53.1868 434.083 50.2988 434.474 47.5367C434.875 44.9747 434.974 43.1447 434.765 42.0467C434.567 40.9487 434.474 40.3997 434.474 40.3997C434.474 40.3997 434.812 40.2567 435.494 39.9651C436.187 39.6791 437.333 39.5304 438.932 39.5304C442.25 39.5304 444.265 40.2567 444.974 41.7036C445.692 43.1561 445.796 45.5408 445.286 48.8634L441.932 70.1372C441.541 72.9623 441.671 75.0496 442.328 76.4049C442.979 77.7489 444.078 78.4179 445.619 78.4179C447.104 78.4179 448.703 77.6859 450.411 76.2219C452.13 74.7465 453.536 72.7449 454.619 70.2287C455.203 70.2287 455.645 70.4231 455.953 70.8006C456.27 71.1666 456.375 71.7956 456.265 72.6763C456.026 73.9287 455.494 75.3413 454.661 76.9082C453.838 78.4809 452.744 80.0078 451.369 81.4832C449.994 82.9472 448.416 84.171 446.64 85.1432C444.875 86.1211 442.963 86.6072 440.911 86.6072C437.937 86.6072 435.52 85.595 433.661 83.5648C431.812 81.5232 430.89 78.6181 430.89 74.8494Z" fill="#CFA548" fill-opacity="0.302"/>
<path d="M472.281 48.8634L471.594 53.0038C474.328 47.9256 477.036 44.4143 479.719 42.4584C482.411 40.5083 484.729 39.5304 486.677 39.5304C488.786 39.5304 490.453 40.1652 491.677 41.4291C492.911 42.6815 493.531 44.4943 493.531 46.8733C493.531 49.5154 492.87 51.6885 491.552 53.3927C490.245 55.0854 488.536 55.9318 486.427 55.9318C485.344 55.9318 484.427 55.8403 483.677 55.6573C482.938 55.4629 482.573 55.3599 482.573 55.3599C482.573 55.3599 482.75 54.891 483.115 53.9417C483.49 52.9981 483.677 51.9001 483.677 50.6477C483.677 49.2752 483.078 48.5889 481.885 48.5889C481.188 48.5889 480.354 48.9664 479.385 49.7098C478.411 50.459 477.219 51.9287 475.802 54.1247C474.703 55.7603 473.667 57.596 472.698 59.6376C471.724 61.6849 470.807 64.184 469.948 67.1406C469.099 70.0857 468.333 73.7858 467.656 78.2349C467.25 80.9971 467.146 82.9415 467.344 84.0681C467.552 85.2004 467.656 85.7608 467.656 85.7608C467.656 85.7608 467.307 85.9095 466.615 86.1954C465.932 86.4699 464.792 86.6072 463.198 86.6072C459.875 86.6072 457.865 85.8752 457.156 84.4112C456.438 82.9358 456.333 80.5625 456.844 77.2971L461.385 48.4746C461.844 45.5351 461.969 43.4535 461.76 42.2297C461.563 41.0116 461.469 40.3997 461.469 40.3997C461.469 40.3997 461.807 40.2567 462.49 39.9651C463.182 39.6791 464.328 39.5304 465.927 39.5304C469.245 39.5304 471.26 40.3025 471.969 41.8408C472.688 43.3849 472.792 45.7238 472.281 48.8634Z" fill="#CFA548" fill-opacity="0.302"/>
<path d="M327.235 57.6965L328.36 50.3536H310.86L307.36 72.5652C306.844 75.8306 306.698 78.141 306.922 79.4963C307.141 80.8402 307.256 81.5093 307.256 81.5093C307.256 81.5093 306.881 81.6695 306.131 81.9897C305.391 82.2985 304.141 82.4472 302.381 82.4472C299.24 82.4472 297.24 81.6466 296.381 80.0453C295.516 78.4441 295.37 75.8249 295.943 72.1763L304.006 21.6455C304.115 20.7019 304.214 19.8555 304.297 19.1063C304.391 18.3457 304.443 17.6538 304.443 17.0247H303.568C299.693 17.0247 296.782 18.0484 294.839 20.09C292.891 22.1373 291.922 24.4991 291.922 27.1812C291.922 28.508 292.219 29.5717 292.818 30.3608C293.412 31.1386 294.256 31.5275 295.339 31.5275C295.797 31.5275 296.151 31.4817 296.401 31.3902C296.662 31.2873 296.797 31.2301 296.797 31.2301C296.797 31.2301 296.808 31.2987 296.839 31.436C296.881 31.5618 296.901 31.7734 296.901 32.0765C296.901 33.2202 296.349 34.3868 295.256 35.5763C294.172 36.7658 292.547 37.3606 290.381 37.3606C287.573 37.3606 285.37 36.5028 283.776 34.7757C282.183 33.0544 281.381 30.7726 281.381 27.9361C281.381 23.3039 283.245 19.4666 286.985 16.43C290.735 13.3819 296.068 11.855 302.985 11.855H308.985C312.177 11.855 314.193 12.6556 315.026 14.2568C315.86 15.8581 315.985 18.4773 315.401 22.103L311.714 45.161H329.214L332.985 21.6455C333.495 18.3858 333.636 16.0983 333.401 14.783C333.177 13.4562 333.068 12.7928 333.068 12.7928C333.068 12.7928 333.433 12.6442 334.172 12.3353C334.922 12.0151 336.183 11.855 337.964 11.855C341.157 11.855 343.162 12.6556 343.985 14.2568C344.818 15.8581 344.948 18.4773 344.381 22.103L337.36 66.4347C336.954 69.134 337.136 71.1184 337.901 72.3822C338.677 73.6346 339.782 74.258 341.214 74.258C342.641 74.258 343.954 73.7547 345.151 72.7482C346.36 71.7417 347.401 70.598 348.276 69.317C349.162 68.036 349.808 66.9551 350.214 66.0687C351.474 66.0687 352.016 66.8865 351.839 68.5163C351.615 70.3921 350.761 72.4165 349.276 74.5782C347.787 76.7456 345.912 78.5985 343.651 80.1368C341.401 81.6809 338.954 82.4472 336.318 82.4472C333.287 82.4472 330.818 81.395 328.901 79.2905C326.995 77.186 326.047 74.3495 326.047 70.781C326.047 68.585 326.141 66.4805 326.339 64.4675C326.532 62.4545 326.829 60.2013 327.235 57.6965Z" fill="#CFA548" fill-opacity="0.502"/>
<path d="M375.74 35.3705C380.782 35.3705 384.667 37.0289 387.407 40.3343C390.157 43.6283 391.532 47.9689 391.532 53.3502C391.532 54.3567 391.48 55.3632 391.386 56.3697C391.303 57.3762 391.204 58.3541 391.094 59.2977C393.261 58.9203 395.115 58.1311 396.657 56.9416C398.209 55.7521 399.396 54.6255 400.219 53.5561C401.053 52.4924 401.469 51.9548 401.469 51.9548C402.662 51.9548 403.178 52.744 403.011 54.311C402.844 55.3804 402.167 56.5927 400.99 57.9481C399.823 59.292 398.308 60.4986 396.448 61.5623C394.584 62.6146 392.516 63.3008 390.24 63.6211C388.808 69.2026 386.162 73.7433 382.303 77.2317C378.438 80.7087 373.6 82.4472 367.782 82.4472C363.266 82.4472 359.511 80.9146 356.511 77.8493C353.511 74.7726 352.011 70.312 352.011 64.4675C352.011 58.7659 352.964 53.7334 354.865 49.37C356.782 45.0123 359.521 41.5867 363.094 39.0991C366.678 36.6171 370.891 35.3705 375.74 35.3705ZM376.094 53.6476C376.094 52.0177 376.459 50.6224 377.198 49.4615C377.948 48.3063 379.037 47.5628 380.469 47.2426C380.011 42.4102 378.146 39.9912 374.886 39.9912C372.771 39.9912 370.688 41.3751 368.636 44.1316C366.579 46.8937 364.948 51.789 363.74 58.8173C363.516 60.0068 363.329 61.6252 363.178 63.6668C363.037 65.7141 362.969 67.3268 362.969 68.5163C362.969 71.4615 363.469 73.7318 364.469 75.3331C365.469 76.9343 366.855 77.735 368.636 77.735C370.98 77.735 373.079 76.3739 374.928 73.6403C376.787 70.9125 378.261 66.7264 379.344 61.082C377.178 59.2691 376.094 56.7929 376.094 53.6476Z" fill="#CFA548" fill-opacity="0.502"/>
<path d="M427.102 70.6895C427.102 70.2491 427.102 69.763 427.102 69.2255C427.102 68.6936 427.128 68.116 427.185 67.487C425.919 70.1862 424.628 72.508 423.31 74.441C421.544 77.1402 419.674 79.1532 417.706 80.48C415.732 81.7953 413.57 82.4472 411.227 82.4472C408.362 82.4472 406.091 81.4521 404.414 79.4506C402.737 77.4376 401.893 74.8012 401.893 71.5358C401.893 69.7687 401.966 68.0074 402.102 66.2517C402.242 64.5018 402.513 62.403 402.914 59.9611L405.393 44.3146C405.852 41.3751 405.982 39.2935 405.789 38.0697C405.591 36.8516 405.497 36.2397 405.497 36.2397C405.497 36.2397 405.836 36.0967 406.518 35.8051C407.195 35.5191 408.341 35.3705 409.956 35.3705C413.258 35.3705 415.268 36.0967 415.977 37.5436C416.695 38.9961 416.799 41.3809 416.289 44.7035L412.852 66.4347C412.461 69.134 412.523 71.1184 413.039 72.3822C413.549 73.6346 414.435 74.258 415.685 74.258C416.654 74.258 417.685 73.6804 418.768 72.5195C419.862 71.3643 420.956 69.8374 422.039 67.9445C423.289 65.8743 424.482 63.4552 425.622 60.6931C426.773 57.9366 427.81 55.0544 428.727 52.0463C429.643 49.0268 430.294 46.1389 430.685 43.3767C431.086 40.8147 431.185 38.9847 430.977 37.8867C430.779 36.7887 430.685 36.2397 430.685 36.2397C430.685 36.2397 431.023 36.0967 431.706 35.8051C432.398 35.5191 433.544 35.3705 435.143 35.3705C438.461 35.3705 440.477 36.0967 441.185 37.5436C441.904 38.9961 442.008 41.3809 441.497 44.7035L438.143 65.9772C437.753 68.8023 437.883 70.8896 438.539 72.245C439.19 73.5889 440.289 74.258 441.831 74.258C443.315 74.258 444.914 73.526 446.622 72.062C448.341 70.5865 449.747 68.585 450.831 66.0687C451.414 66.0687 451.857 66.2631 452.164 66.6406C452.482 67.0066 452.586 67.6356 452.477 68.5163C452.237 69.7687 451.706 71.1813 450.872 72.7482C450.049 74.3209 448.956 75.8478 447.581 77.3232C446.206 78.7872 444.628 80.011 442.852 80.9832C441.086 81.9611 439.174 82.4472 437.122 82.4472C434.148 82.4472 431.732 81.435 429.872 79.4048C428.023 77.3632 427.102 74.4581 427.102 70.6895Z" fill="#CFA548" fill-opacity="0.502"/>
<path d="M468.493 44.7035L467.805 48.8438C470.539 43.7656 473.248 40.2543 475.93 38.2985C478.623 36.3484 480.941 35.3705 482.888 35.3705C484.998 35.3705 486.664 36.0052 487.888 37.2691C489.123 38.5215 489.743 40.3343 489.743 42.7133C489.743 45.3554 489.081 47.5285 487.763 49.2327C486.456 50.9255 484.748 51.7718 482.638 51.7718C481.555 51.7718 480.638 51.6803 479.888 51.4973C479.149 51.3029 478.784 51.2 478.784 51.2C478.784 51.2 478.961 50.731 479.326 49.7817C479.701 48.8381 479.888 47.7401 479.888 46.4877C479.888 45.1152 479.289 44.429 478.097 44.429C477.399 44.429 476.566 44.8064 475.597 45.5498C474.623 46.299 473.43 47.7687 472.013 49.9647C470.914 51.6003 469.878 53.436 468.909 55.4776C467.935 57.5249 467.019 60.024 466.159 62.9806C465.31 65.9257 464.545 69.6258 463.868 74.075C463.461 76.8371 463.357 78.7815 463.555 79.9081C463.763 81.0404 463.868 81.6008 463.868 81.6008C463.868 81.6008 463.519 81.7495 462.826 82.0355C462.144 82.31 461.003 82.4472 459.409 82.4472C456.086 82.4472 454.076 81.7152 453.368 80.2512C452.649 78.7758 452.545 76.4025 453.055 73.1371L457.597 44.3146C458.055 41.3751 458.18 39.2935 457.972 38.0697C457.774 36.8516 457.68 36.2397 457.68 36.2397C457.68 36.2397 458.019 36.0967 458.701 35.8051C459.394 35.5191 460.539 35.3705 462.138 35.3705C465.456 35.3705 467.472 36.1425 468.18 37.6808C468.899 39.2249 469.003 41.5639 468.493 44.7035Z" fill="#CFA548" fill-opacity="0.502"/>
<path d="M323.446 53.5365L324.571 46.1936H307.071L303.571 68.4052C303.055 71.6706 302.91 73.981 303.134 75.3364C303.352 76.6803 303.467 77.3494 303.467 77.3494C303.467 77.3494 303.092 77.5095 302.342 77.8297C301.602 78.1385 300.352 78.2872 298.592 78.2872C295.451 78.2872 293.451 77.4866 292.592 75.8854C291.727 74.2841 291.581 71.6649 292.154 68.0164L300.217 17.4855C300.326 16.5419 300.425 15.6955 300.509 14.9464C300.602 14.1858 300.654 13.4938 300.654 12.8647H299.779C295.904 12.8647 292.993 13.8884 291.05 15.93C289.102 17.9773 288.134 20.3391 288.134 23.0212C288.134 24.348 288.43 25.4117 289.029 26.2009C289.623 26.9786 290.467 27.3675 291.55 27.3675C292.009 27.3675 292.363 27.3217 292.613 27.2302C292.873 27.1273 293.009 27.0701 293.009 27.0701C293.009 27.0701 293.019 27.1387 293.05 27.276C293.092 27.4018 293.113 27.6134 293.113 27.9165C293.113 29.0602 292.561 30.2269 291.467 31.4164C290.384 32.6059 288.759 33.2006 286.592 33.2006C283.785 33.2006 281.581 32.3428 279.988 30.6157C278.394 28.8944 277.592 26.6126 277.592 23.7761C277.592 19.1439 279.456 15.3066 283.196 12.27C286.946 9.22188 292.279 7.69498 299.196 7.69498H305.196C308.389 7.69498 310.404 8.4956 311.238 10.0969C312.071 11.6981 312.196 14.3173 311.613 17.943L307.925 41.001H325.425L329.196 17.4855C329.706 14.2258 329.847 11.9383 329.613 10.623C329.389 9.29623 329.279 8.63285 329.279 8.63285C329.279 8.63285 329.644 8.48416 330.384 8.17535C331.134 7.8551 332.394 7.69498 334.175 7.69498C337.368 7.69498 339.373 8.4956 340.196 10.0969C341.029 11.6981 341.16 14.3173 340.592 17.943L333.571 62.2747C333.165 64.974 333.347 66.9584 334.113 68.2222C334.889 69.4746 335.993 70.098 337.425 70.098C338.852 70.098 340.165 69.5947 341.363 68.5882C342.571 67.5817 343.613 66.438 344.488 65.157C345.373 63.876 346.019 62.7951 346.425 61.9087C347.686 61.9087 348.227 62.7265 348.05 64.3564C347.826 66.2321 346.972 68.2565 345.488 70.4182C343.998 72.5856 342.123 74.4385 339.863 75.9769C337.613 77.5209 335.165 78.2872 332.529 78.2872C329.498 78.2872 327.029 77.235 325.113 75.1305C323.206 73.026 322.259 70.1895 322.259 66.621C322.259 64.425 322.352 62.3205 322.55 60.3075C322.743 58.2945 323.04 56.0413 323.446 53.5365Z" fill="white"/>
<path d="M371.951 31.2105C376.993 31.2105 380.879 32.8689 383.618 36.1743C386.368 39.4683 387.743 43.8089 387.743 49.1902C387.743 50.1967 387.691 51.2032 387.597 52.2097C387.514 53.2162 387.415 54.1941 387.306 55.1377C389.472 54.7603 391.326 53.9711 392.868 52.7816C394.42 51.5921 395.608 50.4655 396.431 49.3961C397.264 48.3324 397.681 47.7948 397.681 47.7948C398.873 47.7948 399.389 48.584 399.222 50.151C399.056 51.2204 398.379 52.4327 397.201 53.7881C396.035 55.132 394.519 56.3387 392.66 57.4023C390.795 58.4546 388.728 59.1408 386.451 59.4611C385.019 65.0426 382.373 69.5833 378.514 73.0717C374.649 76.5487 369.811 78.2872 363.993 78.2872C359.477 78.2872 355.722 76.7546 352.722 73.6893C349.722 70.6127 348.222 66.152 348.222 60.3075C348.222 54.6059 349.175 49.5734 351.076 45.21C352.993 40.8523 355.733 37.4267 359.306 34.9391C362.889 32.4572 367.102 31.2105 371.951 31.2105ZM372.306 49.4876C372.306 47.8577 372.67 46.4624 373.41 45.3015C374.16 44.1463 375.248 43.4028 376.681 43.0826C376.222 38.2502 374.358 35.8312 371.097 35.8312C368.983 35.8312 366.899 37.2152 364.847 39.9716C362.79 42.7337 361.16 47.629 359.951 54.6573C359.727 55.8468 359.54 57.4652 359.389 59.5068C359.248 61.5542 359.181 63.1668 359.181 64.3563C359.181 67.3015 359.681 69.5718 360.681 71.1731C361.681 72.7743 363.066 73.575 364.847 73.575C367.191 73.575 369.29 72.2139 371.139 69.4803C372.998 66.7525 374.472 62.5664 375.556 56.922C373.389 55.1091 372.306 52.6329 372.306 49.4876Z" fill="white"/>
<path d="M423.313 66.5295C423.313 66.0891 423.313 65.603 423.313 65.0655C423.313 64.5336 423.339 63.956 423.396 63.327C422.131 66.0262 420.839 68.348 419.521 70.281C417.756 72.9802 415.886 74.9932 413.917 76.32C411.943 77.6353 409.782 78.2872 407.438 78.2872C404.573 78.2872 402.302 77.2922 400.625 75.2906C398.948 73.2776 398.104 70.6413 398.104 67.3758C398.104 65.6087 398.177 63.8474 398.313 62.0917C398.453 60.3418 398.724 58.243 399.125 55.8011L401.604 40.1546C402.063 37.2152 402.193 35.1335 402 33.9097C401.802 32.6916 401.709 32.0797 401.709 32.0797C401.709 32.0797 402.047 31.9367 402.729 31.6451C403.407 31.3592 404.552 31.2105 406.167 31.2105C409.469 31.2105 411.479 31.9367 412.188 33.3836C412.907 34.8362 413.011 37.2209 412.5 40.5435L409.063 62.2747C408.672 64.974 408.735 66.9584 409.25 68.2222C409.761 69.4746 410.646 70.098 411.896 70.098C412.865 70.098 413.896 69.5204 414.979 68.3595C416.073 67.2043 417.167 65.6774 418.25 63.7845C419.5 61.7143 420.693 59.2952 421.834 56.5331C422.985 53.7767 424.021 50.8944 424.938 47.8863C425.854 44.8668 426.506 41.9789 426.896 39.2167C427.297 36.6547 427.396 34.8247 427.188 33.7267C426.99 32.6287 426.896 32.0797 426.896 32.0797C426.896 32.0797 427.235 31.9367 427.917 31.6451C428.61 31.3592 429.756 31.2105 431.354 31.2105C434.672 31.2105 436.688 31.9367 437.396 33.3836C438.115 34.8362 438.219 37.2209 437.709 40.5435L434.354 61.8172C433.964 64.6423 434.094 66.7296 434.75 68.085C435.401 69.4289 436.5 70.098 438.042 70.098C439.526 70.098 441.125 69.366 442.834 67.902C444.552 66.4265 445.959 64.425 447.042 61.9087C447.625 61.9087 448.068 62.1032 448.375 62.4806C448.693 62.8466 448.797 63.4757 448.688 64.3563C448.448 65.6087 447.917 67.0213 447.084 68.5882C446.261 70.1609 445.167 71.6878 443.792 73.1632C442.417 74.6272 440.839 75.851 439.063 76.8232C437.297 77.8011 435.386 78.2872 433.334 78.2872C430.36 78.2872 427.943 77.275 426.084 75.2448C424.235 73.2033 423.313 70.2981 423.313 66.5295Z" fill="white"/>
<path d="M464.704 40.5435L464.016 44.6838C466.751 39.6056 469.459 36.0943 472.141 34.1385C474.834 32.1884 477.152 31.2105 479.1 31.2105C481.209 31.2105 482.876 31.8452 484.1 33.1091C485.334 34.3615 485.954 36.1743 485.954 38.5533C485.954 41.1954 485.292 43.3685 483.975 45.0727C482.667 46.7655 480.959 47.6118 478.85 47.6118C477.766 47.6118 476.85 47.5203 476.1 47.3373C475.36 47.1429 474.996 47.04 474.996 47.04C474.996 47.04 475.173 46.571 475.537 45.6217C475.912 44.6781 476.1 43.5801 476.1 42.3277C476.1 40.9552 475.501 40.269 474.308 40.269C473.61 40.269 472.777 40.6464 471.808 41.3898C470.834 42.139 469.641 43.6087 468.225 45.8047C467.126 47.4403 466.089 49.276 465.121 51.3176C464.147 53.3649 463.23 55.864 462.371 58.8206C461.522 61.7657 460.756 65.4658 460.079 69.915C459.673 72.6771 459.568 74.6215 459.766 75.7481C459.975 76.8804 460.079 77.4408 460.079 77.4408C460.079 77.4408 459.73 77.5895 459.037 77.8755C458.355 78.15 457.214 78.2872 455.621 78.2872C452.298 78.2872 450.287 77.5552 449.579 76.0912C448.86 74.6158 448.756 72.2425 449.266 68.9771L453.808 40.1546C454.266 37.2152 454.391 35.1335 454.183 33.9097C453.985 32.6916 453.891 32.0797 453.891 32.0797C453.891 32.0797 454.23 31.9367 454.912 31.6451C455.605 31.3592 456.751 31.2105 458.35 31.2105C461.667 31.2105 463.683 31.9825 464.391 33.5208C465.11 35.0649 465.214 37.4039 464.704 40.5435Z" fill="white"/>
<path d="M101.812 143.414C99.6875 143.414 97.8021 142.871 96.1667 141.79C94.526 140.709 93.2552 139.228 92.3542 137.352C91.4479 135.465 91 133.372 91 131.085C91 128.889 91.4219 126.795 92.2708 124.794C93.1302 122.798 94.3854 121.18 96.0417 119.944C97.7083 118.698 99.7083 118.069 102.042 118.069C102.875 118.069 103.776 118.223 104.75 118.526C105.734 118.818 106.635 119.23 107.458 119.761H107.5L107.375 118.32H109.792V126.372H107.75C107.177 122.546 105.417 120.608 102.458 120.562C101.042 120.562 99.8385 121.02 98.8542 121.935C97.8802 122.85 97.151 124.056 96.6667 125.549C96.1927 127.047 95.9583 128.66 95.9583 130.398C95.9583 132.383 96.2135 134.15 96.7292 135.705C97.2552 137.249 98.0104 138.45 99 139.32C100 140.189 101.193 140.623 102.583 140.623C103.927 140.623 105.25 140.246 106.542 139.48C107.833 138.719 108.917 137.673 109.792 136.346L111.312 137.878C109.922 139.983 108.396 141.435 106.729 142.225C105.073 143.014 103.438 143.414 101.812 143.414Z" fill="white"/>
<path d="M119.158 140.578C119.726 140.566 120.158 140.498 120.45 140.372C120.742 140.234 120.971 139.96 121.138 139.548C121.304 139.125 121.388 138.462 121.388 137.558V124.291C121.388 123.01 121.429 121.975 121.513 121.18L119.158 121.294V118.618H134.929L135.117 125.343H133.033C133.033 123.639 132.658 122.455 131.908 121.797C131.158 121.145 130.263 120.836 129.221 120.882L128.075 120.905C127.575 120.939 127.169 121.014 126.867 121.134C126.575 121.26 126.351 121.54 126.2 121.98C126.044 122.426 125.971 123.073 125.971 123.925V129.117H129.658C129.627 128.723 129.585 127.716 129.533 126.098H131.95V134.516H129.867C129.867 133.601 129.731 132.926 129.471 132.48C129.221 132.04 128.877 131.759 128.45 131.633C128.033 131.496 127.476 131.445 126.783 131.473L125.971 131.496V137.192C125.971 138.427 125.929 139.445 125.846 140.234H130.075C131.143 140.234 132.044 139.84 132.783 139.045C133.533 138.239 133.908 136.975 133.908 135.248H135.971L135.804 142.865H119.158V140.578Z" fill="white"/>
<path d="M144.82 140.578C145.388 140.566 145.82 140.498 146.112 140.372C146.404 140.234 146.633 139.96 146.799 139.548C146.966 139.125 147.049 138.462 147.049 137.558V124.291C147.049 123.01 147.091 121.975 147.174 121.18L144.82 121.294V118.618H153.862V120.905C153.289 120.939 152.862 121.014 152.57 121.134C152.279 121.26 152.049 121.534 151.883 121.957C151.716 122.369 151.633 123.027 151.633 123.925V137.192C151.633 138.427 151.591 139.445 151.508 140.234H155.737C156.987 140.206 157.956 139.72 158.654 138.77C159.346 137.81 159.695 136.409 159.695 134.561H161.82L161.633 142.865H144.82V140.578Z" fill="white"/>
<path d="M169.852 140.578C170.419 140.566 170.852 140.498 171.143 140.372C171.435 140.234 171.664 139.96 171.831 139.548C171.998 139.125 172.081 138.462 172.081 137.558V124.291C172.081 123.01 172.123 121.975 172.206 121.18L169.852 121.294V118.618H185.623L185.81 125.343H183.727C183.727 123.639 183.352 122.455 182.602 121.797C181.852 121.145 180.956 120.836 179.914 120.882L178.768 120.905C178.268 120.939 177.862 121.014 177.56 121.134C177.268 121.26 177.044 121.54 176.893 121.98C176.737 122.426 176.664 123.073 176.664 123.925V129.117H180.352C180.32 128.723 180.279 127.716 180.227 126.098H182.643V134.516H180.56C180.56 133.601 180.425 132.926 180.164 132.48C179.914 132.04 179.57 131.759 179.143 131.633C178.727 131.496 178.169 131.445 177.477 131.473L176.664 131.496V137.192C176.664 138.427 176.623 139.445 176.539 140.234H180.768C181.836 140.234 182.737 139.84 183.477 139.045C184.227 138.239 184.602 136.975 184.602 135.248H186.664L186.498 142.865H169.852V140.578Z" fill="white"/>
<path d="M195.514 140.578C196.081 140.566 196.514 140.498 196.805 140.372C197.097 140.234 197.326 139.96 197.493 139.548C197.659 139.125 197.743 138.462 197.743 137.558V124.291C197.743 123.01 197.784 121.975 197.868 121.18L195.514 121.294V118.618L204.243 118.549C206.769 118.538 208.748 119.041 210.18 120.059C211.607 121.065 212.326 122.552 212.326 124.519C212.326 125.652 211.935 126.692 211.159 127.653C210.394 128.603 209.269 129.295 207.784 129.735V129.781C209.795 130.118 211.316 130.856 212.347 131.999C213.373 133.132 213.889 134.459 213.889 135.98C213.889 138.176 213.18 139.88 211.764 141.081C210.347 142.27 208.498 142.865 206.222 142.865H195.514V140.578ZM203.951 129.209C205.201 129.197 206.102 128.768 206.659 127.928C207.211 127.076 207.493 125.96 207.493 124.588C207.493 123.341 207.17 122.426 206.534 121.843C205.909 121.265 205.144 120.974 204.243 120.974C203.795 120.974 203.441 121.037 203.18 121.157C202.915 121.265 202.706 121.534 202.555 121.957C202.399 122.386 202.326 123.027 202.326 123.879V129.254L203.951 129.209ZM202.201 140.417C203.586 140.417 204.607 140.406 205.264 140.372C206.498 140.297 207.42 139.863 208.034 139.068C208.644 138.279 208.951 137.209 208.951 135.865C208.951 134.39 208.56 133.321 207.784 132.663C207.003 132.011 206.034 131.679 204.868 131.679C203.711 131.679 202.868 131.691 202.326 131.702V137.352C202.326 138.605 202.284 139.628 202.201 140.417Z" fill="white"/>
<path d="M222.342 140.578C222.909 140.566 223.342 140.498 223.633 140.372C223.925 140.235 224.154 139.96 224.321 139.548C224.488 139.125 224.571 138.462 224.571 137.558V124.291C224.571 123.01 224.613 121.975 224.696 121.18L222.342 121.294V118.618L231.3 118.549C234.175 118.538 236.394 119.092 237.967 120.219C239.534 121.351 240.321 123.187 240.321 125.732C240.321 127.322 239.847 128.728 238.904 129.964C237.972 131.199 236.592 132.108 234.758 132.686V132.709C235.133 132.88 235.519 133.166 235.925 133.578C236.326 133.978 236.665 134.419 236.946 134.905L238.425 137.329C239.133 138.553 239.722 139.4 240.196 139.869C240.665 140.326 241.248 140.566 241.946 140.578V142.865H236.758C236.394 142.591 236.034 142.196 235.675 141.676C235.31 141.161 234.904 140.475 234.446 139.617L232.113 135.454C231.581 134.527 231.139 133.852 230.779 133.441H229.154V137.146C229.154 138.462 229.113 139.514 229.029 140.303C229.696 140.229 230.581 140.189 231.696 140.189V142.865H222.342V140.578ZM230.654 130.947C232.389 130.947 233.639 130.53 234.404 129.689C235.165 128.854 235.55 127.533 235.55 125.732C235.55 123.81 235.097 122.541 234.196 121.912C233.305 121.288 232.326 120.974 231.258 120.974C230.519 120.974 229.988 121.151 229.654 121.5C229.321 121.854 229.154 122.592 229.154 123.719V130.81C229.779 130.902 230.279 130.947 230.654 130.947Z" fill="white"/>
<path d="M248.499 140.486C249.041 140.486 249.489 140.315 249.854 139.96C250.229 139.611 250.52 139.194 250.729 138.702C250.947 138.199 251.213 137.478 251.52 136.529L257.687 118H259.895L266.604 136.872C266.77 137.329 266.942 137.901 267.124 138.587C267.317 139.274 267.437 139.846 267.479 140.303C268.171 140.229 268.781 140.189 269.312 140.189V142.865H260.833V140.578C261.843 140.578 262.354 140.12 262.354 139.205C262.354 138.736 262.234 138.176 261.999 137.535L261.374 135.637L254.52 135.774L254.02 137.398C253.947 137.581 253.802 138.004 253.583 138.656C253.374 139.297 253.187 139.811 253.02 140.189C253.687 140.132 254.427 140.097 255.249 140.097V142.865H248.499V140.486ZM260.583 133.166L259.124 128.843C258.51 126.956 258.114 125.366 257.937 124.085H257.895C257.562 125.749 257.171 127.276 256.729 128.66L255.312 133.166H260.583Z" fill="white"/>
<path d="M281.111 140.578C281.663 140.566 282.09 140.498 282.382 140.372C282.684 140.234 282.923 139.96 283.09 139.548C283.257 139.125 283.34 138.462 283.34 137.558V120.974H281.882C280.642 121.008 279.684 121.471 279.007 122.369C278.34 123.273 278.007 124.628 278.007 126.441H275.923L276.09 118.618H295.194L295.382 126.441H293.298C293.298 124.628 292.955 123.256 292.277 122.323C291.595 121.38 290.642 120.922 289.423 120.951H287.923V137.192C287.923 138.736 287.871 139.771 287.777 140.303C288.47 140.229 289.319 140.189 290.319 140.189V142.865H281.111V140.578Z" fill="white"/>
<path d="M303.488 140.578C304.056 140.566 304.488 140.498 304.78 140.372C305.071 140.234 305.301 139.96 305.467 139.548C305.634 139.125 305.717 138.462 305.717 137.558V124.291C305.717 123.01 305.759 121.975 305.842 121.18L303.488 121.294V118.618H312.53V120.905C311.957 120.939 311.53 121.014 311.238 121.134C310.946 121.26 310.717 121.534 310.551 121.957C310.384 122.369 310.301 123.027 310.301 123.925V137.192C310.301 138.473 310.259 139.514 310.176 140.303C310.842 140.229 311.623 140.189 312.53 140.189V142.865H303.488V140.578Z" fill="white"/>
<path d="M332.179 143.414C329.648 143.414 327.565 142.808 325.929 141.584C324.289 140.366 323.086 138.793 322.325 136.872C321.575 134.95 321.2 132.909 321.2 130.741C321.2 128.683 321.617 126.687 322.45 124.748C323.294 122.815 324.554 121.22 326.221 119.967C327.898 118.703 329.914 118.069 332.263 118.069C334.69 118.069 336.726 118.703 338.367 119.967C340.018 121.22 341.242 122.815 342.034 124.748C342.836 126.687 343.242 128.683 343.242 130.741C343.242 132.754 342.815 134.739 341.971 136.689C341.138 138.645 339.877 140.252 338.2 141.516C336.534 142.785 334.523 143.414 332.179 143.414ZM332.492 140.898C333.851 140.898 334.961 140.429 335.825 139.48C336.7 138.536 337.325 137.341 337.7 135.888C338.075 134.424 338.263 132.909 338.263 131.336C338.263 128.059 337.731 125.452 336.679 123.513C335.638 121.563 334.08 120.585 332.013 120.585C330.622 120.585 329.481 121.077 328.596 122.049C327.721 123.027 327.096 124.256 326.721 125.732C326.346 127.196 326.159 128.728 326.159 130.33C326.159 131.948 326.367 133.566 326.784 135.179C327.2 136.798 327.888 138.153 328.846 139.251C329.804 140.349 331.018 140.898 332.492 140.898Z" fill="white"/>
<path d="M358.599 129.049C358.068 128.305 357.485 127.436 356.849 126.441H356.828L356.891 137.192C356.891 138.473 356.849 139.514 356.766 140.303C357.433 140.229 358.214 140.189 359.12 140.189V142.865H351.933V140.578C352.5 140.566 352.933 140.498 353.224 140.372C353.516 140.234 353.745 139.96 353.912 139.548C354.089 139.125 354.183 138.462 354.183 137.558L354.12 124.291C354.12 122.752 354.162 121.717 354.245 121.18L351.849 121.294V118.618H356.787L366.453 131.999C367.328 133.269 368.063 134.356 368.662 135.271H368.683V124.291C368.683 122.798 368.714 121.763 368.787 121.18L366.412 121.294V118.618H373.599V120.905C373.026 120.939 372.599 121.014 372.308 121.134C372.016 121.26 371.787 121.534 371.62 121.957C371.453 122.369 371.37 123.027 371.37 123.925V143.208H368.683L358.599 129.049Z" fill="white"/>
<path d="M390.374 143.414C389.51 143.414 388.588 143.26 387.604 142.957C386.63 142.671 385.734 142.259 384.916 141.721H384.874L384.979 143.185H382.541V135.065H384.624C384.9 136.958 385.562 138.405 386.604 139.411C387.656 140.418 388.942 140.921 390.458 140.921C391.552 140.921 392.458 140.612 393.166 139.983C393.885 139.342 394.249 138.576 394.249 137.673C394.249 136.929 394.01 136.294 393.541 135.774C393.067 135.242 392.541 134.825 391.958 134.516C391.385 134.213 390.468 133.784 389.208 133.235C386.885 132.217 385.109 131.062 383.874 129.781C382.65 128.488 382.041 126.784 382.041 124.68C382.041 123.627 382.281 122.598 382.77 121.591C383.255 120.585 384.046 119.75 385.145 119.075C386.255 118.406 387.677 118.069 389.416 118.069C390.317 118.069 391.26 118.217 392.249 118.503C393.249 118.795 394.072 119.207 394.729 119.739H394.749L394.624 118.32H397.083V126.372H394.999C394.734 124.485 394.13 123.044 393.187 122.049C392.255 121.06 391.062 120.562 389.604 120.562C388.656 120.562 387.843 120.848 387.166 121.408C386.484 121.975 386.145 122.684 386.145 123.536C386.145 124.559 386.531 125.423 387.312 126.121C388.088 126.807 389.4 127.562 391.249 128.385C393.374 129.317 395.104 130.393 396.437 131.611C397.77 132.817 398.437 134.419 398.437 136.414C398.437 137.787 398.093 139.011 397.416 140.074C396.749 141.127 395.802 141.95 394.583 142.545C393.374 143.122 391.968 143.414 390.374 143.414Z" fill="white"/>
</svg>
